HIERARCHY
ROOT Hips
{
    OFFSET   0.000000   0.000000   0.000000
    CHANNELS 6 Xposition Yposition Zposition Zrotation Xrotation Yrotation
    JOINT Chest
    {
        OFFSET   0.000000   8.007230   0.000000
        CHANNELS 3 Zrotation Xrotation Yrotation
        JOINT Chest2
        {
            OFFSET   0.000000  22.077100   0.000000
            CHANNELS 3 Zrotation Xrotation Yrotation
            JOINT Neck
            {
                OFFSET   0.000000  23.254800  -0.000021
                CHANNELS 3 Zrotation Xrotation Yrotation
                JOINT Head
                {
                    OFFSET   0.000000  14.370000   1.956610
                    CHANNELS 3 Zrotation Xrotation Yrotation
                    End Site
                    {
                        OFFSET   0.000000  19.566000   0.000000
                    }
                }
            }
            JOINT LeftCollar
            {
                OFFSET   3.911900  19.017000  -0.467063
                CHANNELS 3 Zrotation Xrotation Yrotation
                JOINT LeftShoulder
                {
                    OFFSET  10.383700   0.000000   0.000000
                    CHANNELS 3 Zrotation Xrotation Yrotation
                    JOINT LeftElbow
                    {
                        OFFSET  26.662100   0.001529   0.000325
                        CHANNELS 3 Zrotation Xrotation Yrotation
                        JOINT LeftWrist
                        {
                            OFFSET  28.869000  -0.000011  -0.000096
                            CHANNELS 3 Zrotation Xrotation Yrotation
                            JOINT LeftFinger0
                            {
                                OFFSET   2.044650  -2.323460   3.252850
                                CHANNELS 3 Zrotation Xrotation Yrotation
                                JOINT LeftFinger01
                                {
                                    OFFSET   3.088130   0.000000   0.000000
                                    CHANNELS 3 Zrotation Xrotation Yrotation
                                    JOINT LeftFinger02
                                    {
                                        OFFSET   2.639460   0.000000   0.000000
                                        CHANNELS 3 Zrotation Xrotation Yrotation
                                        End Site
                                        {
                                            OFFSET   2.582190   0.000000   0.000000
                                        }
                                    }
                                }
                            }
                            JOINT LeftFinger1
                            {
                                OFFSET   8.364480   0.000000   3.252850
                                CHANNELS 3 Zrotation Xrotation Yrotation
                                JOINT LeftFinger11
                                {
                                    OFFSET   4.646930   0.000000   0.000000
                                    CHANNELS 3 Zrotation Xrotation Yrotation
                                    JOINT LeftFinger12
                                    {
                                        OFFSET   2.323460   0.000000   0.000000
                                        CHANNELS 3 Zrotation Xrotation Yrotation
                                        End Site
                                        {
                                            OFFSET   2.273050   0.000000   0.000000
                                        }
                                    }
                                }
                            }
                            JOINT LeftFinger2
                            {
                                OFFSET   8.364480   0.000016   1.078090
                                CHANNELS 3 Zrotation Xrotation Yrotation
                                JOINT LeftFinger21
                                {
                                    OFFSET   5.111620   0.000000   0.000000
                                    CHANNELS 3 Zrotation Xrotation Yrotation
                                    JOINT LeftFinger22
                                    {
                                        OFFSET   2.788160   0.000017   0.000000
                                        CHANNELS 3 Zrotation Xrotation Yrotation
                                        End Site
                                        {
                                            OFFSET   2.727660   0.000000   0.000000
                                        }
                                    }
                                }
                            }
                            JOINT LeftFinger3
                            {
                                OFFSET   7.899780   0.000015  -1.078090
                                CHANNELS 3 Zrotation Xrotation Yrotation
                                JOINT LeftFinger31
                                {
                                    OFFSET   4.646920   0.000000   0.000000
                                    CHANNELS 3 Zrotation Xrotation Yrotation
                                    JOINT LeftFinger32
                                    {
                                        OFFSET   2.323470   0.000000   0.000000
                                        CHANNELS 3 Zrotation Xrotation Yrotation
                                        End Site
                                        {
                                            OFFSET   2.273050   0.000000   0.000000
                                        }
                                    }
                                }
                            }
                            JOINT LeftFinger4
                            {
                                OFFSET   7.435090   0.000000  -3.252850
                                CHANNELS 3 Zrotation Xrotation Yrotation
                                JOINT LeftFinger41
                                {
                                    OFFSET   3.717550   0.000000   0.000000
                                    CHANNELS 3 Zrotation Xrotation Yrotation
                                    JOINT LeftFinger42
                                    {
                                        OFFSET   1.858760   0.000000   0.000000
                                        CHANNELS 3 Zrotation Xrotation Yrotation
                                        End Site
                                        {
                                            OFFSET   1.818440   0.000000   0.000000
                                        }
                                    }
                                }
                            }
                        }
                    }
                }
            }
            JOINT RightCollar
            {
                OFFSET  -3.911900  19.017000  -0.467062
                CHANNELS 3 Zrotation Xrotation Yrotation
                JOINT RightShoulder
                {
                    OFFSET -10.383700   0.000015   0.000000
                    CHANNELS 3 Zrotation Xrotation Yrotation
                    JOINT RightElbow
                    {
                        OFFSET -26.662100   0.001341   0.000385
                        CHANNELS 3 Zrotation Xrotation Yrotation
                        JOINT RightWrist
                        {
                            OFFSET -28.869000   0.000025  -0.000080
                            CHANNELS 3 Zrotation Xrotation Yrotation
                            JOINT RightFinger0
                            {
                                OFFSET  -2.044650  -2.323490   3.252850
                                CHANNELS 3 Zrotation Xrotation Yrotation
                                JOINT RightFinger01
                                {
                                    OFFSET  -3.088130   0.000000   0.000000
                                    CHANNELS 3 Zrotation Xrotation Yrotation
                                    JOINT RightFinger02
                                    {
                                        OFFSET  -2.639460   0.000000   0.000000
                                        CHANNELS 3 Zrotation Xrotation Yrotation
                                        End Site
                                        {
                                            OFFSET  -2.582190   0.000000   0.000000
                                        }
                                    }
                                }
                            }
                            JOINT RightFinger1
                            {
                                OFFSET  -8.364480   0.000000   3.252850
                                CHANNELS 3 Zrotation Xrotation Yrotation
                                JOINT RightFinger11
                                {
                                    OFFSET  -4.646930   0.000000   0.000000
                                    CHANNELS 3 Zrotation Xrotation Yrotation
                                    JOINT RightFinger12
                                    {
                                        OFFSET  -2.323470   0.000000   0.000000
                                        CHANNELS 3 Zrotation Xrotation Yrotation
                                        End Site
                                        {
                                            OFFSET  -2.273050   0.000000   0.000000
                                        }
                                    }
                                }
                            }
                            JOINT RightFinger2
                            {
                                OFFSET  -8.364480   0.000000   1.078090
                                CHANNELS 3 Zrotation Xrotation Yrotation
                                JOINT RightFinger21
                                {
                                    OFFSET  -5.111610   0.000000   0.000000
                                    CHANNELS 3 Zrotation Xrotation Yrotation
                                    JOINT RightFinger22
                                    {
                                        OFFSET  -2.788160   0.000000   0.000000
                                        CHANNELS 3 Zrotation Xrotation Yrotation
                                        End Site
                                        {
                                            OFFSET  -2.727660   0.000000   0.000000
                                        }
                                    }
                                }
                            }
                            JOINT RightFinger3
                            {
                                OFFSET  -7.899780   0.000000  -1.078090
                                CHANNELS 3 Zrotation Xrotation Yrotation
                                JOINT RightFinger31
                                {
                                    OFFSET  -4.646920   0.000000   0.000000
                                    CHANNELS 3 Zrotation Xrotation Yrotation
                                    JOINT RightFinger32
                                    {
                                        OFFSET  -2.323470   0.000000   0.000000
                                        CHANNELS 3 Zrotation Xrotation Yrotation
                                        End Site
                                        {
                                            OFFSET  -2.273050   0.000000   0.000000
                                        }
                                    }
                                }
                            }
                            JOINT RightFinger4
                            {
                                OFFSET  -7.435090   0.000000  -3.252850
                                CHANNELS 3 Zrotation Xrotation Yrotation
                                JOINT RightFinger41
                                {
                                    OFFSET  -3.717550   0.000000   0.000000
                                    CHANNELS 3 Zrotation Xrotation Yrotation
                                    JOINT RightFinger42
                                    {
                                        OFFSET  -1.858770   0.000000   0.000000
                                        CHANNELS 3 Zrotation Xrotation Yrotation
                                        End Site
                                        {
                                            OFFSET  -1.818440   0.000000   0.000000
                                        }
                                    }
                                }
                            }
                        }
                    }
                }
            }
        }
    }
    JOINT LeftHip
    {
        OFFSET   9.783010   0.000000   0.000000
        CHANNELS 3 Zrotation Xrotation Yrotation
        JOINT LeftKnee
        {
            OFFSET   0.000070 -41.789100   0.000028
            CHANNELS 3 Zrotation Xrotation Yrotation
            JOINT LeftAnkle
            {
                OFFSET   0.000087 -41.133200  -0.000100
                CHANNELS 3 Zrotation Xrotation Yrotation
                JOINT LeftToe
                {
                    OFFSET   0.000000  -6.358960  14.674500
                    CHANNELS 3 Zrotation Xrotation Yrotation
                    End Site
                    {
                        OFFSET   0.000000   0.000000   3.913200
                    }
                }
            }
        }
    }
    JOINT RightHip
    {
        OFFSET  -9.783020   0.000000   0.000000
        CHANNELS 3 Zrotation Xrotation Yrotation
        JOINT RightKnee
        {
            OFFSET   0.000044 -41.789100  -0.000870
            CHANNELS 3 Zrotation Xrotation Yrotation
            JOINT RightAnkle
            {
                OFFSET  -0.000090 -41.133200  -0.000245
                CHANNELS 3 Zrotation Xrotation Yrotation
                JOINT RightToe
                {
                    OFFSET   0.000000  -6.358960  14.674500
                    CHANNELS 3 Zrotation Xrotation Yrotation
                    End Site
                    {
                        OFFSET   0.000000   0.000000   3.913200
                    }
                }
            }
        }
    }
}
MOTION
Frames: 4
Frame Time:   0.016667
 -0.345756  89.861400  -0.830914  -1.420210 -12.731200  -2.484420  -0.054084   8.536270   0.027966  -0.114321  17.072600   0.065102   2.372190   3.114490  -0.125818   3.929150   6.282920  -3.050970  -5.336710  -1.684910   2.870320 -57.011100  23.454500 -42.895200   2.196660  -9.533170 -78.964700  -1.870280 -69.546500  21.009000  47.273400  35.895500 -74.631300 -10.452000  -0.007449  -0.001279  -0.225995  -0.000124  -0.002492 -15.661100   0.205670  -0.733588 -12.814700  -0.001308  -0.005689  -8.970250   0.009162   0.002070 -22.798300  -4.057100   9.554200 -23.137500  -0.000706  -0.004183 -15.409600   0.000526  -0.002801 -14.218300  -2.574000  10.051400 -14.444600  -0.000041  -0.003016  -9.620120  -0.000550  -0.002598 -15.513200  -4.157800  14.658800 -24.071200   0.000703  -0.002454 -16.031400   0.002240  -0.004175  10.320900  -1.212390   9.551240  69.521300   6.142000  32.746300  -4.433180 -21.459000  73.357000 -97.739900 -39.537700 -53.418900 -42.253200  41.961800  86.009900  27.960000  -0.000543   0.000375   8.980030  -0.001518   0.005751  40.782600   9.699870  11.058400  34.136800   0.001482  -0.001000  24.261900   0.000894   0.005939  30.081400  -2.386250  -4.111790  45.248500   0.001863  -0.003815  30.135500  -0.004902  -0.000562  32.743700  -5.152450  -7.950100  49.653000  -0.004296  -0.001172  33.068800   0.000139   0.003492  53.394700  -7.621680  -5.628370  80.655200  -0.001693  -0.000460  53.716400  -0.002241   0.001398   1.227730  12.297600   2.515900   0.062265   2.605530  12.678200  -5.189100  -3.895280   4.829720  -0.000000   0.000000   0.000000   2.972370  10.319400  -7.375110  -2.097690   6.084510  -8.603580  -7.062640  -1.358890   3.878180  -0.000000   0.000000   0.000000
 -0.345593  89.862100  -0.813212  -1.415020 -12.707000  -2.467080  -0.057838   8.524180   0.025405  -0.121614  17.048400   0.060657   2.358600   3.093080  -0.125591   3.906510   6.239840  -3.056560  -5.340830  -1.675420   2.863840 -57.007600  23.459700 -42.888000   2.197850  -9.508270 -78.972300  -1.880340 -69.476300  21.034200  47.274300  35.898500 -74.639700 -10.481900  -0.007433  -0.001235  -0.240938  -0.000131  -0.002497 -15.665900   0.210638  -0.751062 -12.818700  -0.001305  -0.005693  -8.973070   0.009162   0.002069 -22.816300  -4.059200   9.549630 -23.155500  -0.000683  -0.004196 -15.421600   0.000557  -0.002804 -14.240900  -2.577130  10.046900 -14.467400   0.000000  -0.003012  -9.635310  -0.000553  -0.002601 -15.524000  -4.158340  14.640400 -24.087100   0.000712  -0.002490 -16.042000   0.002257  -0.004175  10.312400  -1.193760   9.549630  69.452500   6.153290  32.762700  -4.470810 -21.469700  73.424500 -97.635300 -39.453800 -53.348400 -42.032700  41.689300  85.679300  28.212000  -0.000476   0.000343   9.106000  -0.001521   0.005792  40.689600   9.565610  10.938600  34.042900   0.001535  -0.001166  24.175400   0.000929   0.006047  29.980700  -2.511390  -4.342960  45.114400   0.001993  -0.003809  30.046100  -0.004931  -0.000460  32.715900  -5.163490  -7.975200  49.614100  -0.004129  -0.001119  33.043000   0.000182   0.003674  53.331600  -7.638260  -5.651520  80.563900  -0.001530  -0.000375  53.655600  -0.002161   0.001369   1.228050  12.291000   2.518250   0.060852   2.585200  12.677000  -5.189600  -3.893690   4.813700   0.000000   0.000000  -0.000000   2.972840  10.325200  -7.369620  -2.092960   6.049260  -8.627610  -7.062740  -1.355790   3.880730   0.000000   0.000000  -0.000000
 -0.345369  89.862700  -0.794917  -1.409570 -12.687800  -2.447880  -0.063622   8.513890   0.024145  -0.133208  17.027800   0.059093   2.341750   3.067770  -0.124749   3.877400   6.189290  -3.054120  -5.343680  -1.669030   2.858350 -57.016200  23.462000 -42.869400   2.206200  -9.479410 -78.985100  -1.862680 -69.405800  21.082400  47.281700  35.904400 -74.646600 -10.498600  -0.007406  -0.001217  -0.249291  -0.000140  -0.002497 -15.653800   0.219397  -0.782918 -12.808900  -0.001291  -0.005697  -8.966190   0.009160   0.002071 -22.835500  -4.061040   9.544730 -23.174700  -0.000666  -0.004209 -15.434400   0.000589  -0.002813 -14.258700  -2.579300  10.042400 -14.485300   0.000000  -0.003014  -9.647250  -0.000505  -0.002594 -15.534700  -4.158930  14.623900 -24.102600   0.000740  -0.002523 -16.052300   0.002272  -0.004176  10.302300  -1.166250   9.550270  69.381400   6.158460  32.780400  -4.430290 -21.517200  73.519100 -97.473300 -39.294700 -53.244800 -41.889500  41.501800  85.466300  28.209600  -0.000420   0.000296   9.104790  -0.001502   0.005827  40.624600   9.596780  11.004400  33.991500   0.001586  -0.001323  24.127700   0.000967   0.006153  29.982400  -2.480200  -4.292160  45.115100   0.002119  -0.003802  30.046600  -0.004965  -0.000356  32.719200  -5.162930  -7.973620  49.618900  -0.003961  -0.001069  33.046200   0.000222   0.003861  53.304100  -7.634610  -5.651450  80.522100  -0.001376  -0.000297  53.627700  -0.002083   0.001334   1.228130  12.297100   2.520430   0.060203   2.559760  12.671000  -5.189910  -3.895370   4.799460  -0.000000   0.000000   0.000000   2.975160  10.335100  -7.372190  -2.088910   6.016930  -8.648960  -7.063820  -1.356040   3.885440  -0.000000   0.000000  -0.000000
 -0.345281  89.863500  -0.775939  -1.404100 -12.672100  -2.428260  -0.070354   8.505300   0.023567  -0.146762  17.010600   0.058816   2.319950   3.038520  -0.123032   3.841420   6.130950  -3.038730  -5.347010  -1.664100   2.855260 -57.028600  23.463000 -42.843800   2.210870  -9.452300 -79.004600  -1.857850 -69.344500  21.104900  47.288500  35.909100 -74.650200 -10.505900  -0.007378  -0.001212  -0.252985  -0.000148  -0.002496 -15.641600   0.228498  -0.816089 -12.799000  -0.001280  -0.005700  -8.959300   0.009155   0.002073 -22.857400  -4.062930   9.539150 -23.196600  -0.000645  -0.004224 -15.448900   0.000617  -0.002823 -14.277100  -2.581550  10.037300 -14.503800   0.000000  -0.003018  -9.659550  -0.000456  -0.002588 -15.546200  -4.160170  14.615600 -24.119800   0.000770  -0.002557 -16.063800   0.002287  -0.004177  10.291800  -1.131840   9.554670  69.309500   6.166630  32.797400  -4.384380 -21.583200  73.618000 -97.320800 -39.082500 -53.111600 -41.647500  41.193300  85.098200  28.192700  -0.000362   0.000243   9.096360  -0.001480   0.005859  40.568900   9.707490  11.143300  33.969200   0.001636  -0.001482  24.106800   0.001005   0.006261  29.992500  -2.410010  -4.167140  45.119900   0.002245  -0.003797  30.049900  -0.004996  -0.000246  32.741800  -5.162450  -7.965310  49.652300  -0.003797  -0.001024  33.068500   0.000259   0.004049  53.294200  -7.627530  -5.651180  80.506900  -0.001223  -0.000220  53.617600  -0.002006   0.001299   1.227820  12.303200   2.522350   0.059813   2.544660  12.662100  -5.189740  -3.899570   4.786780  -0.000000   0.000000  -0.000000   2.978150  10.346200  -7.379590  -2.085000   5.989710  -8.665410  -7.066580  -1.357850   3.889820  -0.000000   0.000000   0.000000
